<svg width="1152" height="53" viewBox="0 0 1152 53" fill="none" xmlns="http://www.w3.org/2000/svg">
<path d="M12.5022 11.0258C14.465 11.0258 16.1416 11.3665 17.532 12.0481C18.9496 12.7296 20.0128 13.6702 20.7216 14.8697C21.4577 16.0692 21.8257 17.405 21.8257 18.8771C21.8257 20.7309 21.3214 22.2576 20.3127 23.4571C19.304 24.6294 17.9682 25.3518 16.3052 25.6244V25.8289C20.3399 27.0284 22.3573 29.4002 22.3573 32.9442C22.3573 35.425 21.5258 37.4423 19.8629 38.9963C18.1999 40.5229 15.8554 41.2862 12.8293 41.2862C9.61246 41.2862 7.04986 40.4957 5.14154 38.9145C3.23322 37.306 2.17001 34.8934 1.95192 31.6765H7.59509C7.7314 33.1486 8.20848 34.3209 9.02633 35.1933C9.87144 36.0384 11.0573 36.4609 12.584 36.4609C13.8925 36.4609 14.9149 36.1065 15.6509 35.3977C16.387 34.6617 16.755 33.7075 16.755 32.5352C16.755 31.1449 16.2234 30.0817 15.1602 29.3456C14.097 28.6096 12.5295 28.2415 10.4576 28.2415H9.27169V23.5389H10.4576C14.2742 23.5934 16.1825 22.2712 16.1825 19.5723C16.1825 18.4001 15.8418 17.4868 15.1602 16.8325C14.4787 16.151 13.5518 15.8102 12.3795 15.8102C11.1527 15.8102 10.1441 16.2055 9.35347 16.9961C8.56288 17.7594 8.11306 18.8362 8.00402 20.2266H2.36085C2.52442 17.2823 3.47858 15.0196 5.22332 13.4384C6.96807 11.83 9.39436 11.0258 12.5022 11.0258ZM27.4538 18.7136C27.4538 17.3232 27.8355 16.0283 28.5988 14.8288C29.3894 13.6293 30.548 12.6615 32.0747 11.9254C33.6286 11.1893 35.496 10.8213 37.677 10.8213C39.8579 10.8213 41.7117 11.1893 43.2384 11.9254C44.7923 12.6615 45.9509 13.6293 46.7142 14.8288C47.5048 16.0283 47.9001 17.3232 47.9001 18.7136C47.9001 20.2947 47.5185 21.6442 46.7551 22.7619C45.9918 23.8524 44.8468 24.6702 43.3202 25.2155C45.0376 25.8698 46.3462 26.8239 47.2458 28.078C48.1727 29.3047 48.6362 30.8041 48.6362 32.5761C48.6362 34.4845 48.1591 36.1338 47.2049 37.5241C46.2508 38.8872 44.9422 39.9232 43.2793 40.632C41.6436 41.3408 39.7761 41.6952 37.677 41.6952C35.5778 41.6952 33.6968 41.3408 32.0338 40.632C30.3981 39.9232 29.1032 38.8872 28.149 37.5241C27.2221 36.1338 26.7587 34.4845 26.7587 32.5761C26.7587 30.8041 27.2085 29.3047 28.1081 28.078C29.035 26.8239 30.3572 25.8698 32.0747 25.2155C30.548 24.6702 29.3894 23.8388 28.5988 22.721C27.8355 21.6033 27.4538 20.2675 27.4538 18.7136ZM33.1379 19.6541C33.1379 20.9627 33.5468 21.9713 34.3647 22.6801C35.1825 23.3889 36.2866 23.7434 37.677 23.7434C39.0946 23.7434 40.2123 23.3889 41.0302 22.6801C41.848 21.9713 42.2569 20.9627 42.2569 19.6541C42.2569 18.3455 41.8344 17.3369 40.9893 16.6281C40.1714 15.892 39.0673 15.524 37.677 15.524C36.3139 15.524 35.2098 15.892 34.3647 16.6281C33.5468 17.3369 33.1379 18.3455 33.1379 19.6541ZM32.361 32.249C32.361 33.6939 32.838 34.8389 33.7922 35.684C34.7463 36.5291 36.0413 36.9516 37.677 36.9516C39.3127 36.9516 40.6076 36.5291 41.5618 35.684C42.5432 34.8389 43.0339 33.6939 43.0339 32.249C43.0339 30.7769 42.5296 29.6591 41.5209 28.8958C40.5395 28.1052 39.2582 27.7099 37.677 27.7099C36.1231 27.7099 34.8418 28.1052 33.8331 28.8958C32.8517 29.6591 32.361 30.7769 32.361 32.249ZM52.6321 26.3196C52.6321 36.1065 56.3125 41 63.6731 41C67.5716 41 70.3795 39.6914 72.097 37.0743C73.8145 34.4572 74.6732 30.8723 74.6732 26.3196C74.6732 21.7941 73.8145 18.2229 72.097 15.6057C70.3795 12.9886 67.5716 11.6801 63.6731 11.6801C56.3125 11.6801 52.6321 16.5599 52.6321 26.3196ZM68.9892 26.3196C68.9892 29.2911 68.6211 31.5811 67.8851 33.1895C67.1763 34.7707 65.7723 35.5613 63.6731 35.5613C61.5467 35.5613 60.1155 34.7707 59.3794 33.1895C58.6706 31.5811 58.3162 29.2911 58.3162 26.3196C58.3162 23.3753 58.6706 21.1126 59.3794 19.5314C60.1155 17.923 61.5467 17.1188 63.6731 17.1188C65.7723 17.1188 67.1763 17.923 67.8851 19.5314C68.6211 21.1126 68.9892 23.3753 68.9892 26.3196ZM78.4695 26.3196C78.4695 36.1065 82.1498 41 89.5105 41C93.4089 41 96.2169 39.6914 97.9344 37.0743C99.6519 34.4572 100.511 30.8723 100.511 26.3196C100.511 21.7941 99.6519 18.2229 97.9344 15.6057C96.2169 12.9886 93.4089 11.6801 89.5105 11.6801C82.1498 11.6801 78.4695 16.5599 78.4695 26.3196ZM94.8265 26.3196C94.8265 29.2911 94.4585 31.5811 93.7224 33.1895C93.0136 34.7707 91.6097 35.5613 89.5105 35.5613C87.3841 35.5613 85.9529 34.7707 85.2168 33.1895C84.508 31.5811 84.1536 29.2911 84.1536 26.3196C84.1536 23.3753 84.508 21.1126 85.2168 19.5314C85.9529 17.923 87.3841 17.1188 89.5105 17.1188C91.6097 17.1188 93.0136 17.923 93.7224 19.5314C94.4585 21.1126 94.8265 23.3753 94.8265 26.3196ZM124.385 29.1003H116.738V36.8699H111.177V29.1003H103.53V23.8251H111.177V16.0147H116.738V23.8251H124.385V29.1003Z" fill="white"/>
<path d="M379.962 36.4609C389.204 30.0544 393.825 24.7384 393.825 20.5128C393.825 19.2315 393.512 18.2229 392.885 17.4868C392.285 16.7507 391.331 16.3827 390.022 16.3827C387.323 16.3827 385.892 18.2229 385.728 21.9032H380.126C380.29 18.4955 381.326 15.9192 383.234 14.1745C385.142 12.4025 387.555 11.5165 390.472 11.5165C393.443 11.5165 395.72 12.2934 397.301 13.8474C398.909 15.374 399.714 17.4186 399.714 19.9812C399.714 21.9986 399.114 24.0296 397.914 26.0742C396.742 28.0916 395.243 29.959 393.416 31.6765C391.59 33.3667 389.668 34.8252 387.65 36.052H400.286V40.7546H379.962V36.4609ZM413.92 11.0258C415.883 11.0258 417.559 11.3665 418.95 12.0481C420.367 12.7296 421.43 13.6702 422.139 14.8697C422.875 16.0692 423.243 17.405 423.243 18.8771C423.243 20.7309 422.739 22.2576 421.73 23.4571C420.722 24.6294 419.386 25.3518 417.723 25.6244V25.8289C421.758 27.0284 423.775 29.4002 423.775 32.9442C423.775 35.425 422.944 37.4423 421.281 38.9963C419.618 40.5229 417.273 41.2862 414.247 41.2862C411.03 41.2862 408.468 40.4957 406.559 38.9145C404.651 37.306 403.588 34.8934 403.37 31.6765H409.013C409.149 33.1486 409.626 34.3209 410.444 35.1933C411.289 36.0384 412.475 36.4609 414.002 36.4609C415.31 36.4609 416.333 36.1065 417.069 35.3977C417.805 34.6617 418.173 33.7075 418.173 32.5352C418.173 31.1449 417.641 30.0817 416.578 29.3456C415.515 28.6096 413.947 28.2415 411.875 28.2415H410.689V23.5389H411.875C415.692 23.5934 417.6 22.2712 417.6 19.5723C417.6 18.4001 417.259 17.4868 416.578 16.8325C415.896 16.151 414.969 15.8102 413.797 15.8102C412.57 15.8102 411.562 16.2055 410.771 16.9961C409.981 17.7594 409.531 18.8362 409.422 20.2266H403.779C403.942 17.2823 404.896 15.0196 406.641 13.4384C408.386 11.83 410.812 11.0258 413.92 11.0258ZM428.013 26.3196C428.013 36.1065 431.693 41 439.054 41C442.952 41 445.76 39.6914 447.478 37.0743C449.195 34.4572 450.054 30.8723 450.054 26.3196C450.054 21.7941 449.195 18.2229 447.478 15.6057C445.76 12.9886 442.952 11.6801 439.054 11.6801C431.693 11.6801 428.013 16.5599 428.013 26.3196ZM444.37 26.3196C444.37 29.2911 444.002 31.5811 443.266 33.1895C442.557 34.7707 441.153 35.5613 439.054 35.5613C436.927 35.5613 435.496 34.7707 434.76 33.1895C434.051 31.5811 433.697 29.2911 433.697 26.3196C433.697 23.3753 434.051 21.1126 434.76 19.5314C435.496 17.923 436.927 17.1188 439.054 17.1188C441.153 17.1188 442.557 17.923 443.266 19.5314C444.002 21.1126 444.37 23.3753 444.37 26.3196ZM473.928 29.1003H466.282V36.8699H460.72V29.1003H453.073V23.8251H460.72V16.0147H466.282V23.8251H473.928V29.1003Z" fill="white"/>
<path d="M840.835 24.3567C842.771 24.9565 844.352 25.5426 845.579 26.1151C846.805 26.6876 847.841 27.5464 848.686 28.6913C849.559 29.8091 849.995 31.2812 849.995 33.1077C849.995 34.5799 849.613 35.943 848.85 37.197C848.087 38.4238 846.942 39.4188 845.415 40.1821C843.888 40.9182 842.034 41.2862 839.854 41.2862H839.813V44.5577H838.259V41.2045C835.424 40.9591 833.106 40.0867 831.307 38.5873C829.535 37.0607 828.554 35.0842 828.363 32.6579H834.497C834.606 33.6393 834.987 34.5117 835.642 35.275C836.296 36.0111 837.168 36.4882 838.259 36.7063V28.6913L837.441 28.446C835.478 27.8735 833.883 27.3146 832.656 26.7694C831.457 26.1969 830.421 25.3518 829.549 24.2341C828.704 23.0891 828.281 21.5897 828.281 19.7359C828.281 18.1274 828.704 16.7235 829.549 15.524C830.421 14.3244 831.607 13.3975 833.106 12.7433C834.633 12.089 836.35 11.7482 838.259 11.7209V8.28597H839.813V11.7618C842.648 11.9527 844.897 12.7842 846.56 14.2563C848.25 15.7012 849.204 17.5549 849.422 19.8177H843.207C843.07 18.918 842.702 18.1547 842.103 17.5277C841.53 16.8734 840.767 16.4508 839.813 16.26V24.0296L840.835 24.3567ZM834.456 19.4905C834.456 20.4719 834.783 21.2762 835.437 21.9032C836.091 22.5029 837.032 23.0345 838.259 23.498V16.1373C837.059 16.1919 836.119 16.5054 835.437 17.0779C834.783 17.6504 834.456 18.4546 834.456 19.4905ZM839.813 36.8699C841.067 36.8426 842.048 36.5018 842.757 35.8475C843.466 35.166 843.82 34.2936 843.82 33.2304C843.82 32.2217 843.466 31.4175 842.757 30.8178C842.075 30.1907 841.094 29.6591 839.813 29.2229V36.8699ZM853.155 36.4609C862.397 30.0544 867.018 24.7384 867.018 20.5128C867.018 19.2315 866.704 18.2229 866.077 17.4868C865.477 16.7507 864.523 16.3827 863.215 16.3827C860.516 16.3827 859.085 18.2229 858.921 21.9032H853.319C853.482 18.4955 854.518 15.9192 856.427 14.1745C858.335 12.4025 860.748 11.5165 863.665 11.5165C866.636 11.5165 868.912 12.2934 870.494 13.8474C872.102 15.374 872.906 17.4186 872.906 19.9812C872.906 21.9986 872.306 24.0296 871.107 26.0742C869.935 28.0916 868.435 29.959 866.609 31.6765C864.782 33.3667 862.86 34.8252 860.843 36.052H873.479V40.7546H853.155V36.4609ZM887.113 11.0258C889.075 11.0258 890.752 11.3665 892.142 12.0481C893.56 12.7296 894.623 13.6702 895.332 14.8697C896.068 16.0692 896.436 17.405 896.436 18.8771C896.436 20.7309 895.932 22.2576 894.923 23.4571C893.914 24.6294 892.579 25.3518 890.916 25.6244V25.8289C894.95 27.0284 896.968 29.4002 896.968 32.9442C896.968 35.425 896.136 37.4423 894.473 38.9963C892.81 40.5229 890.466 41.2862 887.44 41.2862C884.223 41.2862 881.66 40.4957 879.752 38.9145C877.844 37.306 876.78 34.8934 876.562 31.6765H882.205C882.342 33.1486 882.819 34.3209 883.637 35.1933C884.482 36.0384 885.668 36.4609 887.194 36.4609C888.503 36.4609 889.525 36.1065 890.261 35.3977C890.997 34.6617 891.365 33.7075 891.365 32.5352C891.365 31.1449 890.834 30.0817 889.771 29.3456C888.707 28.6096 887.14 28.2415 885.068 28.2415H883.882V23.5389H885.068C888.885 23.5934 890.793 22.2712 890.793 19.5723C890.793 18.4001 890.452 17.4868 889.771 16.8325C889.089 16.151 888.162 15.8102 886.99 15.8102C885.763 15.8102 884.754 16.2055 883.964 16.9961C883.173 17.7594 882.723 18.8362 882.614 20.2266H876.971C877.135 17.2823 878.089 15.0196 879.834 13.4384C881.578 11.83 884.005 11.0258 887.113 11.0258ZM901.205 26.3196C901.205 36.1065 904.886 41 912.246 41C916.145 41 918.953 39.6914 920.67 37.0743C922.388 34.4572 923.247 30.8723 923.247 26.3196C923.247 21.7941 922.388 18.2229 920.67 15.6057C918.953 12.9886 916.145 11.6801 912.246 11.6801C904.886 11.6801 901.205 16.5599 901.205 26.3196ZM917.562 26.3196C917.562 29.2911 917.194 31.5811 916.458 33.1895C915.75 34.7707 914.346 35.5613 912.246 35.5613C910.12 35.5613 908.689 34.7707 907.953 33.1895C907.244 31.5811 906.89 29.2911 906.89 26.3196C906.89 23.3753 907.244 21.1126 907.953 19.5314C908.689 17.923 910.12 17.1188 912.246 17.1188C914.346 17.1188 915.75 17.923 916.458 19.5314C917.194 21.1126 917.562 23.3753 917.562 26.3196ZM958.857 12.457V41H953.132V21.0853L945.812 41H940.824L933.504 21.1671V41H927.738V12.457H934.731L943.4 33.9256L951.905 12.457H958.857ZM983.461 29.1003H975.814V36.8699H970.253V29.1003H962.606V23.8251H970.253V16.0147H975.814V23.8251H983.461V29.1003Z" fill="white"/>
<path d="M155.088 20.2164V28.8651C155.088 30.2827 155.401 31.3323 156.028 32.0139C156.655 32.6818 157.521 33.0157 158.625 33.0157C159.715 33.0157 160.567 32.675 161.181 31.9934C161.794 31.3119 162.101 30.2691 162.101 28.8651V20.2164H163.961V28.8651C163.961 30.828 163.471 32.3069 162.489 33.302C161.521 34.2834 160.22 34.7741 158.584 34.7741C156.962 34.7741 155.66 34.2834 154.679 33.302C153.711 32.3069 153.227 30.828 153.227 28.8651V20.2164H155.088ZM175.966 30.8893C175.966 31.5709 175.802 32.2047 175.475 32.7908C175.148 33.3769 174.651 33.854 173.983 34.2221C173.315 34.5901 172.49 34.7741 171.509 34.7741C170.555 34.7741 169.703 34.6037 168.953 34.2629C168.217 33.9085 167.624 33.4315 167.174 32.8317C166.738 32.2183 166.486 31.5231 166.418 30.7462H168.401C168.442 31.1551 168.578 31.5572 168.81 31.9525C169.055 32.3342 169.396 32.6545 169.832 32.9135C170.282 33.1589 170.82 33.2815 171.447 33.2815C172.265 33.2815 172.892 33.0634 173.328 32.6272C173.765 32.1911 173.983 31.6322 173.983 30.9507C173.983 30.3645 173.826 29.8874 173.512 29.5194C173.213 29.1514 172.838 28.8651 172.388 28.6607C171.938 28.4426 171.325 28.2109 170.548 27.9655C169.635 27.6656 168.898 27.3862 168.34 27.1272C167.794 26.8546 167.324 26.4525 166.929 25.9209C166.547 25.3893 166.356 24.6873 166.356 23.8149C166.356 23.0652 166.533 22.4041 166.888 21.8316C167.256 21.2591 167.774 20.8161 168.442 20.5026C169.123 20.1891 169.921 20.0323 170.834 20.0323C172.252 20.0323 173.376 20.3799 174.208 21.0751C175.039 21.7566 175.523 22.629 175.659 23.6922H173.656C173.547 23.1197 173.254 22.6154 172.776 22.1792C172.299 21.743 171.652 21.5249 170.834 21.5249C170.084 21.5249 169.485 21.7226 169.035 22.1179C168.585 22.4995 168.36 23.0448 168.36 23.7536C168.36 24.3124 168.503 24.7691 168.789 25.1235C169.089 25.4642 169.457 25.7369 169.893 25.9413C170.33 26.1321 170.929 26.3502 171.693 26.5956C172.62 26.8955 173.363 27.1817 173.921 27.4543C174.494 27.727 174.978 28.1427 175.373 28.7016C175.768 29.2468 175.966 29.976 175.966 30.8893ZM180.328 21.7294V26.6569H185.808V28.0882H180.328V33.118H186.421V34.631H178.468V20.2164H186.421V21.7294H180.328ZM196.458 34.631L192.696 28.7425H190.671V34.631H188.811V20.2164H193.554C195.19 20.2164 196.417 20.6117 197.235 21.4022C198.052 22.1792 198.461 23.2151 198.461 24.5101C198.461 25.6823 198.134 26.6297 197.48 27.3521C196.826 28.0609 195.878 28.5039 194.638 28.6811L198.564 34.631H196.458ZM190.671 27.393H193.391C195.504 27.393 196.56 26.4661 196.56 24.6123C196.56 22.7585 195.504 21.8316 193.391 21.8316H190.671V27.393ZM214.227 31.2982H207.889L206.682 34.631H204.679L210.015 20.4822H212.121L217.437 34.631H215.433L214.227 31.2982ZM213.695 29.8466L211.058 22.5677L208.42 29.8466H213.695ZM225.7 20.0732C227.458 20.0732 228.91 20.5094 230.055 21.3818C231.2 22.2405 231.99 23.4196 232.426 24.919H230.464C230.096 23.9648 229.503 23.2083 228.685 22.6495C227.867 22.077 226.865 21.7907 225.679 21.7907C224.739 21.7907 223.894 22.0225 223.144 22.4859C222.408 22.9357 221.822 23.59 221.386 24.4487C220.963 25.2939 220.752 26.2889 220.752 27.4339C220.752 28.5653 220.963 29.5535 221.386 30.3986C221.822 31.2437 222.408 31.898 223.144 32.3614C223.894 32.8113 224.739 33.0362 225.679 33.0362C226.865 33.0362 227.867 32.7567 228.685 32.1979C229.503 31.6254 230.096 30.8621 230.464 29.9079H232.426C231.99 31.4073 231.2 32.5932 230.055 33.4655C228.91 34.3243 227.458 34.7537 225.7 34.7537C224.35 34.7537 223.158 34.447 222.122 33.8336C221.086 33.2066 220.275 32.341 219.688 31.2369C219.116 30.1192 218.83 28.8515 218.83 27.4339C218.83 26.0027 219.116 24.7282 219.688 23.6104C220.275 22.4927 221.086 21.6272 222.122 21.0138C223.158 20.3867 224.35 20.0732 225.7 20.0732ZM243.747 20.2164V21.7294H239.679V34.631H237.818V21.7294H233.749V20.2164H243.747ZM247.458 20.2164V34.631H245.597V20.2164H247.458ZM251.39 20.2164L255.786 32.5659L260.243 20.2164H262.267L256.971 34.631H254.62L249.345 20.2164H251.39ZM266.007 21.7294V26.6569H271.487V28.0882H266.007V33.118H272.1V34.631H264.146V20.2164H272.1V21.7294H266.007Z" fill="url(#paint0_radial_1_221)"/>
<path d="M511.452 20.2164V21.7294H507.384V34.631H505.523V21.7294H501.454V20.2164H511.452ZM520.949 34.631L517.187 28.7425H515.163V34.631H513.302V20.2164H518.046C519.681 20.2164 520.908 20.6117 521.726 21.4022C522.544 22.1792 522.953 23.2151 522.953 24.5101C522.953 25.6823 522.626 26.6297 521.971 27.3521C521.317 28.0609 520.37 28.5039 519.129 28.6811L523.055 34.631H520.949ZM515.163 27.393H517.882C519.995 27.393 521.051 26.4661 521.051 24.6123C521.051 22.7585 519.995 21.8316 517.882 21.8316H515.163V27.393ZM526.981 20.2164V28.8651C526.981 30.2827 527.294 31.3323 527.921 32.0139C528.548 32.6818 529.414 33.0157 530.518 33.0157C531.608 33.0157 532.46 32.675 533.074 31.9934C533.687 31.3119 533.994 30.2691 533.994 28.8651V20.2164H535.854V28.8651C535.854 30.828 535.364 32.3069 534.382 33.302C533.414 34.2834 532.113 34.7741 530.477 34.7741C528.855 34.7741 527.553 34.2834 526.572 33.302C525.604 32.3069 525.12 30.828 525.12 28.8651V20.2164H526.981ZM547.859 30.8893C547.859 31.5709 547.696 32.2047 547.368 32.7908C547.041 33.3769 546.544 33.854 545.876 34.2221C545.208 34.5901 544.383 34.7741 543.402 34.7741C542.448 34.7741 541.596 34.6037 540.846 34.2629C540.11 33.9085 539.517 33.4315 539.067 32.8317C538.631 32.2183 538.379 31.5231 538.311 30.7462H540.294C540.335 31.1551 540.471 31.5572 540.703 31.9525C540.948 32.3342 541.289 32.6545 541.725 32.9135C542.175 33.1589 542.713 33.2815 543.34 33.2815C544.158 33.2815 544.785 33.0634 545.222 32.6272C545.658 32.1911 545.876 31.6322 545.876 30.9507C545.876 30.3645 545.719 29.8874 545.406 29.5194C545.106 29.1514 544.731 28.8651 544.281 28.6607C543.831 28.4426 543.218 28.2109 542.441 27.9655C541.528 27.6656 540.792 27.3862 540.233 27.1272C539.687 26.8546 539.217 26.4525 538.822 25.9209C538.44 25.3893 538.249 24.6873 538.249 23.8149C538.249 23.0652 538.427 22.4041 538.781 21.8316C539.149 21.2591 539.667 20.8161 540.335 20.5026C541.016 20.1891 541.814 20.0323 542.727 20.0323C544.145 20.0323 545.269 20.3799 546.101 21.0751C546.932 21.7566 547.416 22.629 547.552 23.6922H545.549C545.44 23.1197 545.147 22.6154 544.669 22.1792C544.192 21.743 543.545 21.5249 542.727 21.5249C541.977 21.5249 541.378 21.7226 540.928 22.1179C540.478 22.4995 540.253 23.0448 540.253 23.7536C540.253 24.3124 540.396 24.7691 540.682 25.1235C540.982 25.4642 541.35 25.7369 541.787 25.9413C542.223 26.1321 542.822 26.3502 543.586 26.5956C544.513 26.8955 545.256 27.1817 545.814 27.4543C546.387 27.727 546.871 28.1427 547.266 28.7016C547.661 29.2468 547.859 29.976 547.859 30.8893ZM559.194 20.2164V21.7294H555.125V34.631H553.264V21.7294H549.195V20.2164H559.194ZM562.904 21.7294V26.6569H568.383V28.0882H562.904V33.118H568.997V34.631H561.043V20.2164H568.997V21.7294H562.904ZM583.531 27.4134C583.531 28.8719 583.238 30.1464 582.652 31.2369C582.066 32.3137 581.2 33.152 580.055 33.7518C578.924 34.3379 577.561 34.631 575.966 34.631H571.386V20.2164H575.966C577.561 20.2164 578.924 20.5094 580.055 21.0956C581.2 21.668 582.066 22.4995 582.652 23.59C583.238 24.6668 583.531 25.9413 583.531 27.4134ZM575.823 32.9544C577.704 32.9544 579.142 32.4705 580.137 31.5027C581.132 30.5349 581.63 29.1718 581.63 27.4134C581.63 25.6551 581.132 24.292 580.137 23.3242C579.156 22.3428 577.718 21.8521 575.823 21.8521H573.247V32.9544H575.823ZM598.127 27.1681C599.013 27.3589 599.729 27.7815 600.274 28.4358C600.833 29.09 601.112 29.8602 601.112 30.7462C601.112 31.9184 600.71 32.859 599.906 33.5678C599.115 34.2766 597.964 34.631 596.451 34.631H591.094V20.2164H596.369C597.814 20.2164 598.911 20.5367 599.661 21.1773C600.41 21.818 600.785 22.6972 600.785 23.8149C600.785 24.7418 600.533 25.4915 600.029 26.064C599.538 26.6365 598.904 27.0045 598.127 27.1681ZM592.954 26.5343H596.062C596.975 26.5343 597.671 26.323 598.148 25.9004C598.638 25.4779 598.884 24.8849 598.884 24.1216C598.884 23.3855 598.645 22.8062 598.168 22.3837C597.691 21.9611 596.962 21.7498 595.98 21.7498H592.954V26.5343ZM596.103 33.0771C597.084 33.0771 597.841 32.8522 598.373 32.4023C598.918 31.9525 599.19 31.3187 599.19 30.5008C599.19 29.6966 598.911 29.0696 598.352 28.6198C597.807 28.1563 597.044 27.9246 596.062 27.9246H592.954V33.0771H596.103ZM613.677 20.2164L608.954 29.1718V34.631H607.073V29.1718L602.329 20.2164H604.497L608.034 27.1885L611.55 20.2164H613.677ZM626.984 20.0732C628.743 20.0732 630.194 20.5094 631.339 21.3818C632.484 22.2405 633.275 23.4196 633.711 24.919H631.748C631.38 23.9648 630.787 23.2083 629.969 22.6495C629.152 22.077 628.15 21.7907 626.964 21.7907C626.023 21.7907 625.178 22.0225 624.428 22.4859C623.692 22.9357 623.106 23.59 622.67 24.4487C622.248 25.2939 622.036 26.2889 622.036 27.4339C622.036 28.5653 622.248 29.5535 622.67 30.3986C623.106 31.2437 623.692 31.898 624.428 32.3614C625.178 32.8113 626.023 33.0362 626.964 33.0362C628.15 33.0362 629.152 32.7567 629.969 32.1979C630.787 31.6254 631.38 30.8621 631.748 29.9079H633.711C633.275 31.4073 632.484 32.5932 631.339 33.4655C630.194 34.3243 628.743 34.7537 626.984 34.7537C625.635 34.7537 624.442 34.447 623.406 33.8336C622.37 33.2066 621.559 32.341 620.973 31.2369C620.401 30.1192 620.114 28.8515 620.114 27.4339C620.114 26.0027 620.401 24.7282 620.973 23.6104C621.559 22.4927 622.37 21.6272 623.406 21.0138C624.442 20.3867 625.635 20.0732 626.984 20.0732ZM642.803 20.0323C644.139 20.0323 645.339 20.3459 646.402 20.9729C647.479 21.5999 648.324 22.4791 648.937 23.6104C649.551 24.7282 649.857 25.9958 649.857 27.4134C649.857 28.8311 649.551 30.1055 648.937 31.2369C648.324 32.3546 647.479 33.227 646.402 33.854C645.339 34.481 644.139 34.7946 642.803 34.7946C641.468 34.7946 640.254 34.481 639.164 33.854C638.087 33.227 637.242 32.3546 636.629 31.2369C636.015 30.1055 635.709 28.8311 635.709 27.4134C635.709 25.9958 636.015 24.7282 636.629 23.6104C637.242 22.4791 638.087 21.5999 639.164 20.9729C640.254 20.3459 641.468 20.0323 642.803 20.0323ZM642.803 21.7703C641.808 21.7703 640.916 22.002 640.125 22.4655C639.348 22.9153 638.735 23.5696 638.285 24.4283C637.849 25.2734 637.63 26.2685 637.63 27.4134C637.63 28.5448 637.849 29.5399 638.285 30.3986C638.735 31.2573 639.348 31.9184 640.125 32.3819C640.916 32.8317 641.808 33.0566 642.803 33.0566C643.785 33.0566 644.664 32.8249 645.441 32.3614C646.232 31.898 646.845 31.2437 647.281 30.3986C647.731 29.5399 647.956 28.5448 647.956 27.4134C647.956 26.2685 647.731 25.2734 647.281 24.4283C646.845 23.5696 646.232 22.9153 645.441 22.4655C644.664 22.002 643.785 21.7703 642.803 21.7703ZM666.808 20.4617V34.631H664.947V23.3242L660.428 34.631H658.772L654.233 23.3651V34.631H652.373V20.4617H654.601L659.631 32.3614L664.579 20.4617H666.808ZM671.644 28.8242V34.631H669.784V20.2164H674.364C676.013 20.2164 677.247 20.6048 678.065 21.3818C678.882 22.1451 679.291 23.1947 679.291 24.5305C679.291 25.88 678.869 26.9364 678.024 27.6997C677.179 28.4494 675.959 28.8242 674.364 28.8242H671.644ZM674.2 27.2703C675.332 27.2703 676.143 27.0318 676.633 26.5547C677.138 26.0776 677.39 25.4029 677.39 24.5305C677.39 23.6309 677.138 22.9493 676.633 22.4859C676.143 22.0088 675.332 21.7703 674.2 21.7703H671.644V27.2703H674.2ZM689.909 31.2982H683.571L682.364 34.631H680.36L685.697 20.4822H687.803L693.119 34.631H691.115L689.909 31.2982ZM689.377 29.8466L686.74 22.5677L684.102 29.8466H689.377ZM706.207 34.631H704.346L696.863 23.2424V34.631H695.002V20.2164H696.863L704.346 31.6254V20.2164H706.207V34.631ZM719.442 20.2164L714.719 29.1718V34.631H712.838V29.1718L708.095 20.2164H710.262L713.799 27.1885L717.316 20.2164H719.442Z" fill="url(#paint1_radial_1_221)"/>
<path d="M1024.31 20.2164V21.7294H1020.24V34.631H1018.38V21.7294H1014.31V20.2164H1024.31ZM1033.81 34.631L1030.05 28.7425H1028.02V34.631H1026.16V20.2164H1030.91C1032.54 20.2164 1033.77 20.6117 1034.59 21.4022C1035.4 22.1792 1035.81 23.2151 1035.81 24.5101C1035.81 25.6823 1035.49 26.6297 1034.83 27.3521C1034.18 28.0609 1033.23 28.5039 1031.99 28.6811L1035.92 34.631H1033.81ZM1028.02 27.393H1030.74C1032.86 27.393 1033.91 26.4661 1033.91 24.6123C1033.91 22.7585 1032.86 21.8316 1030.74 21.8316H1028.02V27.393ZM1046.53 31.2982H1040.19L1038.98 34.631H1036.98L1042.32 20.4822H1044.42L1049.74 34.631H1047.73L1046.53 31.2982ZM1046 29.8466L1043.36 22.5677L1040.72 29.8466H1046ZM1062.83 34.631H1060.96L1053.48 23.2424V34.631H1051.62V20.2164H1053.48L1060.96 31.6254V20.2164H1062.83V34.631ZM1074.94 30.8893C1074.94 31.5709 1074.77 32.2047 1074.45 32.7908C1074.12 33.3769 1073.62 33.854 1072.95 34.2221C1072.28 34.5901 1071.46 34.7741 1070.48 34.7741C1069.52 34.7741 1068.67 34.6037 1067.92 34.2629C1067.19 33.9085 1066.59 33.4315 1066.14 32.8317C1065.71 32.2183 1065.46 31.5231 1065.39 30.7462H1067.37C1067.41 31.1551 1067.55 31.5572 1067.78 31.9525C1068.03 32.3342 1068.37 32.6545 1068.8 32.9135C1069.25 33.1589 1069.79 33.2815 1070.42 33.2815C1071.24 33.2815 1071.86 33.0634 1072.3 32.6272C1072.73 32.1911 1072.95 31.6322 1072.95 30.9507C1072.95 30.3645 1072.8 29.8874 1072.48 29.5194C1072.18 29.1514 1071.81 28.8651 1071.36 28.6607C1070.91 28.4426 1070.29 28.2109 1069.52 27.9655C1068.6 27.6656 1067.87 27.3862 1067.31 27.1272C1066.76 26.8546 1066.29 26.4525 1065.9 25.9209C1065.52 25.3893 1065.33 24.6873 1065.33 23.8149C1065.33 23.0652 1065.5 22.4041 1065.86 21.8316C1066.23 21.2591 1066.74 20.8161 1067.41 20.5026C1068.09 20.1891 1068.89 20.0323 1069.8 20.0323C1071.22 20.0323 1072.35 20.3799 1073.18 21.0751C1074.01 21.7566 1074.49 22.629 1074.63 23.6922H1072.63C1072.52 23.1197 1072.22 22.6154 1071.75 22.1792C1071.27 21.743 1070.62 21.5249 1069.8 21.5249C1069.05 21.5249 1068.45 21.7226 1068 22.1179C1067.56 22.4995 1067.33 23.0448 1067.33 23.7536C1067.33 24.3124 1067.47 24.7691 1067.76 25.1235C1068.06 25.4642 1068.43 25.7369 1068.86 25.9413C1069.3 26.1321 1069.9 26.3502 1070.66 26.5956C1071.59 26.8955 1072.33 27.1817 1072.89 27.4543C1073.46 27.727 1073.95 28.1427 1074.34 28.7016C1074.74 29.2468 1074.94 29.976 1074.94 30.8893ZM1085.88 31.2982H1079.54L1078.34 34.631H1076.33L1081.67 20.4822H1083.78L1089.09 34.631H1087.09L1085.88 31.2982ZM1085.35 29.8466L1082.71 22.5677L1080.08 29.8466H1085.35ZM1097.35 20.0732C1099.11 20.0732 1100.56 20.5094 1101.71 21.3818C1102.85 22.2405 1103.65 23.4196 1104.08 24.919H1102.12C1101.75 23.9648 1101.16 23.2083 1100.34 22.6495C1099.52 22.077 1098.52 21.7907 1097.33 21.7907C1096.39 21.7907 1095.55 22.0225 1094.8 22.4859C1094.06 22.9357 1093.48 23.59 1093.04 24.4487C1092.62 25.2939 1092.41 26.2889 1092.41 27.4339C1092.41 28.5653 1092.62 29.5535 1093.04 30.3986C1093.48 31.2437 1094.06 31.898 1094.8 32.3614C1095.55 32.8113 1096.39 33.0362 1097.33 33.0362C1098.52 33.0362 1099.52 32.7567 1100.34 32.1979C1101.16 31.6254 1101.75 30.8621 1102.12 29.9079H1104.08C1103.65 31.4073 1102.85 32.5932 1101.71 33.4655C1100.56 34.3243 1099.11 34.7537 1097.35 34.7537C1096.01 34.7537 1094.81 34.447 1093.78 33.8336C1092.74 33.2066 1091.93 32.341 1091.34 31.2369C1090.77 30.1192 1090.48 28.8515 1090.48 27.4339C1090.48 26.0027 1090.77 24.7282 1091.34 23.6104C1091.93 22.4927 1092.74 21.6272 1093.78 21.0138C1094.81 20.3867 1096.01 20.0732 1097.35 20.0732ZM1115.4 20.2164V21.7294H1111.33V34.631H1109.47V21.7294H1105.4V20.2164H1115.4ZM1119.11 20.2164V34.631H1117.25V20.2164H1119.11ZM1128.71 20.0323C1130.04 20.0323 1131.24 20.3459 1132.31 20.9729C1133.38 21.5999 1134.23 22.4791 1134.84 23.6104C1135.46 24.7282 1135.76 25.9958 1135.76 27.4134C1135.76 28.8311 1135.46 30.1055 1134.84 31.2369C1134.23 32.3546 1133.38 33.227 1132.31 33.854C1131.24 34.481 1130.04 34.7946 1128.71 34.7946C1127.37 34.7946 1126.16 34.481 1125.07 33.854C1123.99 33.227 1123.15 32.3546 1122.53 31.2369C1121.92 30.1055 1121.61 28.8311 1121.61 27.4134C1121.61 25.9958 1121.92 24.7282 1122.53 23.6104C1123.15 22.4791 1123.99 21.5999 1125.07 20.9729C1126.16 20.3459 1127.37 20.0323 1128.71 20.0323ZM1128.71 21.7703C1127.71 21.7703 1126.82 22.002 1126.03 22.4655C1125.25 22.9153 1124.64 23.5696 1124.19 24.4283C1123.75 25.2734 1123.54 26.2685 1123.54 27.4134C1123.54 28.5448 1123.75 29.5399 1124.19 30.3986C1124.64 31.2573 1125.25 31.9184 1126.03 32.3819C1126.82 32.8317 1127.71 33.0566 1128.71 33.0566C1129.69 33.0566 1130.57 32.8249 1131.35 32.3614C1132.14 31.898 1132.75 31.2437 1133.19 30.3986C1133.64 29.5399 1133.86 28.5448 1133.86 27.4134C1133.86 26.2685 1133.64 25.2734 1133.19 24.4283C1132.75 23.5696 1132.14 22.9153 1131.35 22.4655C1130.57 22.002 1129.69 21.7703 1128.71 21.7703ZM1149.48 34.631H1147.62L1140.14 23.2424V34.631H1138.28V20.2164H1140.14L1147.62 31.6254V20.2164H1149.48V34.631Z" fill="url(#paint2_radial_1_221)"/>
<line x1="328.186" y1="20.4463" x2="328.186" y2="34.0771" stroke="white" stroke-opacity="0.6" stroke-width="1.70386"/>
<line x1="776.3" y1="20.4463" x2="776.3" y2="34.0771" stroke="white" stroke-opacity="0.6" stroke-width="1.70386"/>
<defs>
<radialGradient id="paint0_radial_1_221" cx="0" cy="0" r="1" gradientUnits="userSpaceOnUse" gradientTransform="translate(239.13 23.3612) rotate(106.933) scale(18.289 75.6641)">
<stop offset="0.00887753" stop-color="#DEF9FA"/>
<stop offset="0.1723" stop-color="#BEF3F5"/>
<stop offset="0.4204" stop-color="#9DEDF0"/>
<stop offset="0.5512" stop-color="#7DE7EB"/>
<stop offset="0.7154" stop-color="#5CE1E6"/>
<stop offset="1" stop-color="#33BBCF"/>
</radialGradient>
<radialGradient id="paint1_radial_1_221" cx="0" cy="0" r="1" gradientUnits="userSpaceOnUse" gradientTransform="translate(657.528 23.3612) rotate(118.611) scale(19.9298 124.404)">
<stop offset="0.00887753" stop-color="#DEF9FA"/>
<stop offset="0.1723" stop-color="#BEF3F5"/>
<stop offset="0.4204" stop-color="#9DEDF0"/>
<stop offset="0.5512" stop-color="#7DE7EB"/>
<stop offset="0.7154" stop-color="#5CE1E6"/>
<stop offset="1" stop-color="#33BBCF"/>
</radialGradient>
<radialGradient id="paint2_radial_1_221" cx="0" cy="0" r="1" gradientUnits="userSpaceOnUse" gradientTransform="translate(1112.19 23.3612) rotate(108.907) scale(18.4939 84.179)">
<stop offset="0.00887753" stop-color="#DEF9FA"/>
<stop offset="0.1723" stop-color="#BEF3F5"/>
<stop offset="0.4204" stop-color="#9DEDF0"/>
<stop offset="0.5512" stop-color="#7DE7EB"/>
<stop offset="0.7154" stop-color="#5CE1E6"/>
<stop offset="1" stop-color="#33BBCF"/>
</radialGradient>
</defs>
</svg>
